<svg id="Group_165851" data-name="Group 165851" xmlns="http://www.w3.org/2000/svg" width="68.78" height="41.299" viewBox="0 0 68.78 41.299">
  <path id="Path_51178" data-name="Path 51178" d="M186.216,291.5,177.2,280.9l14.565-17,12.484,6.8,13.178,12.2-7.167,10.6-6.011,2.4H186.216Z" transform="translate(-164.253 -254.903)" fill="#fff"/>
  <path id="Path_14252" data-name="Path 14252" d="M654.14,271.233c-.416,0-.832.016-1.239.048a9.242,9.242,0,0,0,.25-2.152c0-6.945-7.547-12.569-16.86-12.569-7.473,0-13.8,3.616-16.009,8.633a11.762,11.762,0,0,0-3.218-.44c-5.8,0-10.5,4.064-10.5,9.081a7.856,7.856,0,0,0,.462,2.672,11.326,11.326,0,0,0-6.261,9.8c0,5.768,4.874,10.553,11.246,11.441.351.048.7.088,1.054.112h16.046V285.266h-6.761c-1.054,0-1.6-1.088-.888-1.752l11.329-10.577a1.341,1.341,0,0,1,1.776,0L645.9,283.514c.712.664.166,1.752-.888,1.752h-6.492v12.593h16.749a.3.3,0,0,0,.083-.008c7.944-.528,14.2-6.273,14.2-13.281C669.547,277.2,662.648,271.233,654.14,271.233Z" transform="translate(-600.767 -256.56)" fill="#0e4de0"/>
</svg>
