<svg xmlns="http://www.w3.org/2000/svg" width="215.674" height="45.538" viewBox="0 0 215.674 45.538">
  <g id="Group_220057" data-name="Group 220057" transform="translate(-31.125 -21.582)">
    <path id="Subtraction_2" data-name="Subtraction 2" d="M44.693,44.594h-14.1l-4.207-6.135,7.923-9.007L44.689,44.587Zm-38.858,0H2.111L17.982,26.21,0,0H14.1L25.841,17.106,40.593,0h3.735L28.7,18.095l-.043-.029L16.108,32.691l-10.27,11.9Z" transform="translate(31.6 21.832)" stroke="#000" stroke-width="0.5"/>
    <path id="Path_69352" data-name="Path 69352" d="M-8.087,4.33V19.2a2.853,2.853,0,0,0,.707,2.169,3.514,3.514,0,0,0,2.413.658h3.412v4.63H-5.943A8.455,8.455,0,0,1-11.694,24.9q-2-1.755-2-5.7V4.33H-16.86V-.2h3.168V-6.88h5.6V-.2h6.531V4.33ZM9.118,3.7A8.726,8.726,0,0,1,12.359.5a9.586,9.586,0,0,1,4.8-1.145V5.11H15.746A6.767,6.767,0,0,0,10.8,6.767Q9.118,8.424,9.118,12.518V26.652H3.561V-.2H9.118ZM20.425,13.1a14.862,14.862,0,0,1,1.681-7.165A12.251,12.251,0,0,1,33.1-.641,11.723,11.723,0,0,1,38.629.6,11.226,11.226,0,0,1,42.406,3.7V-.2h5.6V26.652h-5.6v-4a11.035,11.035,0,0,1-3.85,3.168,12.461,12.461,0,0,1-11.892-.512,12.616,12.616,0,0,1-4.557-4.971A15.293,15.293,0,0,1,20.425,13.1Zm21.981.1a9.724,9.724,0,0,0-1.145-4.825,8.04,8.04,0,0,0-3-3.119,7.842,7.842,0,0,0-4-1.072,7.982,7.982,0,0,0-4,1.048,7.9,7.9,0,0,0-3,3.071,9.586,9.586,0,0,0-1.145,4.8,10,10,0,0,0,1.145,4.874,8.081,8.081,0,0,0,3.022,3.192,7.75,7.75,0,0,0,3.972,1.1,7.842,7.842,0,0,0,4-1.072,8,8,0,0,0,3-3.144A9.863,9.863,0,0,0,42.406,13.2Zm11.064,0a15.217,15.217,0,0,1,1.681-7.286,11.961,11.961,0,0,1,4.655-4.849A13.464,13.464,0,0,1,66.629-.641,13.388,13.388,0,0,1,74.7,1.674a11.4,11.4,0,0,1,4.313,6.6H73.014a6.34,6.34,0,0,0-2.339-3.119,6.909,6.909,0,0,0-4.045-1.121A6.727,6.727,0,0,0,61.195,6.45a10.207,10.207,0,0,0-2.023,6.75,10.307,10.307,0,0,0,2.023,6.775,6.7,6.7,0,0,0,5.434,2.437q4.825,0,6.385-4.24h5.995a12,12,0,0,1-4.386,6.507,12.945,12.945,0,0,1-7.993,2.413,13.315,13.315,0,0,1-6.823-1.73,12.126,12.126,0,0,1-4.655-4.874A15.217,15.217,0,0,1,53.47,13.2ZM91.047,4.33V19.2a2.853,2.853,0,0,0,.707,2.169,3.514,3.514,0,0,0,2.413.658h3.412v4.63H93.191A8.455,8.455,0,0,1,87.44,24.9q-2-1.755-2-5.7V4.33H82.274V-.2h3.168V-6.88h5.6V-.2h6.531V4.33Zm23.3,22.761a13.753,13.753,0,0,1-6.872-1.73,12.429,12.429,0,0,1-4.825-4.874,14.7,14.7,0,0,1-1.755-7.286,14.42,14.42,0,0,1,1.8-7.262,12.456,12.456,0,0,1,4.923-4.874,15.091,15.091,0,0,1,13.939,0,12.456,12.456,0,0,1,4.923,4.874,14.42,14.42,0,0,1,1.8,7.262,14.121,14.121,0,0,1-1.852,7.262,12.824,12.824,0,0,1-5.044,4.9A14.54,14.54,0,0,1,114.344,27.091Zm0-4.825a8.268,8.268,0,0,0,4.021-1.024,7.8,7.8,0,0,0,3.046-3.071,9.872,9.872,0,0,0,1.17-4.971,10.077,10.077,0,0,0-1.121-4.947,7.568,7.568,0,0,0-2.973-3.046,8.131,8.131,0,0,0-4-1.024,8,8,0,0,0-3.972,1.024,7.306,7.306,0,0,0-2.9,3.046,10.454,10.454,0,0,0-1.072,4.947,9.423,9.423,0,0,0,2.218,6.7A7.328,7.328,0,0,0,114.344,22.266Zm25-18.569A8.726,8.726,0,0,1,142.588.5a9.587,9.587,0,0,1,4.8-1.145V5.11h-1.413a6.767,6.767,0,0,0-4.947,1.657q-1.681,1.657-1.681,5.751V26.652h-5.556V-.2h5.556Z" transform="translate(99.411 40.03)"/>
  </g>
</svg>
