<svg xmlns="http://www.w3.org/2000/svg" width="165.759" height="69.175" viewBox="0 0 165.759 69.175">
  <g id="Group_220078" data-name="Group 220078" transform="translate(-599.526 -350.75)">
    <g id="Group_220074" data-name="Group 220074" transform="translate(-1 -29.075)">
      <g id="Group_220057" data-name="Group 220057" transform="translate(569.4 358.243)">
        <path id="Subtraction_2" data-name="Subtraction 2" d="M34.326,34.251H23.5l-3.231-4.712,6.086-6.918,7.973,11.624Zm-29.845,0H1.621l12.19-14.12L0,0H10.828l9.02,13.138L31.178,0h2.868l-12,13.9-.033-.022L12.372,25.109,4.484,34.249Z" transform="translate(31.6 21.832)" fill="#fff" stroke="#fff" stroke-width="0.5"/>
        <path id="Path_69352" data-name="Path 69352" d="M-10.122,1.73V13.147a2.191,2.191,0,0,0,.543,1.666,2.7,2.7,0,0,0,1.853.505h2.62v3.556H-8.475a6.494,6.494,0,0,1-4.417-1.348q-1.535-1.348-1.535-4.38V1.73H-16.86V-1.752h2.433V-6.88h4.3v5.128h5.016V1.73ZM3.092,1.243A6.7,6.7,0,0,1,5.581-1.209a7.363,7.363,0,0,1,3.687-.88V2.329H8.183A5.2,5.2,0,0,0,4.384,3.6Q3.092,4.874,3.092,8.019V18.874H-1.175V-1.752H3.092Zm8.685,7.225a11.415,11.415,0,0,1,1.291-5.5,9.409,9.409,0,0,1,8.441-5.054,9,9,0,0,1,4.249.955,8.622,8.622,0,0,1,2.9,2.377V-1.752h4.3V18.874h-4.3V15.8A8.475,8.475,0,0,1,25.7,18.238a9.114,9.114,0,0,1-4.267.973,9.069,9.069,0,0,1-4.866-1.366,9.69,9.69,0,0,1-3.5-3.818A11.746,11.746,0,0,1,11.777,8.468Zm16.883.075a7.469,7.469,0,0,0-.88-3.706,6.175,6.175,0,0,0-2.3-2.4,6.023,6.023,0,0,0-3.07-.824,6.131,6.131,0,0,0-3.07.8,6.07,6.07,0,0,0-2.3,2.358,7.363,7.363,0,0,0-.88,3.687,7.683,7.683,0,0,0,.88,3.743,6.206,6.206,0,0,0,2.321,2.452,5.953,5.953,0,0,0,3.051.842,6.023,6.023,0,0,0,3.07-.824,6.144,6.144,0,0,0,2.3-2.414A7.575,7.575,0,0,0,28.659,8.543Zm8.5,0a11.687,11.687,0,0,1,1.291-5.6A9.186,9.186,0,0,1,42.023-.778a10.341,10.341,0,0,1,5.241-1.31,10.283,10.283,0,0,1,6.2,1.778,8.753,8.753,0,0,1,3.313,5.072h-4.6a4.869,4.869,0,0,0-1.8-2.4,5.307,5.307,0,0,0-3.107-.861A5.167,5.167,0,0,0,43.09,3.358a7.839,7.839,0,0,0-1.553,5.185,7.917,7.917,0,0,0,1.553,5.2,5.145,5.145,0,0,0,4.174,1.872,4.736,4.736,0,0,0,4.9-3.257h4.6a9.218,9.218,0,0,1-3.369,5,9.943,9.943,0,0,1-6.139,1.853,10.227,10.227,0,0,1-5.241-1.329,9.313,9.313,0,0,1-3.575-3.743A11.687,11.687,0,0,1,37.157,8.543ZM66.018,1.73V13.147a2.191,2.191,0,0,0,.543,1.666,2.7,2.7,0,0,0,1.853.505h2.62v3.556H67.665a6.494,6.494,0,0,1-4.417-1.348q-1.535-1.348-1.535-4.38V1.73H59.28V-1.752h2.433V-6.88h4.3v5.128h5.016V1.73ZM83.911,19.211a10.563,10.563,0,0,1-5.278-1.329,9.546,9.546,0,0,1-3.706-3.743,11.292,11.292,0,0,1-1.348-5.6,11.075,11.075,0,0,1,1.385-5.578A9.567,9.567,0,0,1,78.745-.778a11.591,11.591,0,0,1,10.706,0,9.567,9.567,0,0,1,3.781,3.743,11.075,11.075,0,0,1,1.385,5.578,10.845,10.845,0,0,1-1.422,5.578,9.85,9.85,0,0,1-3.874,3.762A11.167,11.167,0,0,1,83.911,19.211Zm0-3.706A6.35,6.35,0,0,0,87,14.719a5.99,5.99,0,0,0,2.34-2.358,7.582,7.582,0,0,0,.9-3.818,7.74,7.74,0,0,0-.861-3.8A5.812,5.812,0,0,0,87.093,2.4a6.245,6.245,0,0,0-3.07-.786,6.14,6.14,0,0,0-3.051.786,5.611,5.611,0,0,0-2.227,2.34,8.029,8.029,0,0,0-.824,3.8,7.237,7.237,0,0,0,1.7,5.147A5.628,5.628,0,0,0,83.911,15.505Zm19.2-14.262A6.7,6.7,0,0,1,105.6-1.209a7.363,7.363,0,0,1,3.687-.88V2.329h-1.086a5.2,5.2,0,0,0-3.8,1.273q-1.291,1.273-1.291,4.417V18.874H98.847V-1.752h4.267Z" transform="translate(87.593 37.405)" fill="#fff"/>
      </g>
    </g>
    <g id="Group_220075" data-name="Group 220075" transform="translate(22 -26.075)" opacity="0.47">
      <text id="Powered_by" data-name="Powered by" transform="translate(578 441)" fill="#fff" font-size="13" font-family="Poppins-Medium, Poppins" font-weight="500"><tspan x="0" y="0">Powered by</tspan></text>
      <g id="Group_220075-2" data-name="Group 220075" transform="translate(660.981 431.155)">
        <path id="Path_69347" data-name="Path 69347" d="M-18.922-1.592a4.034,4.034,0,0,1-1.685-.338,2.977,2.977,0,0,1-1.181-.918,2.327,2.327,0,0,1-.476-1.284h1.947a1.061,1.061,0,0,0,.435.732,1.513,1.513,0,0,0,.946.29,1.469,1.469,0,0,0,.863-.221.669.669,0,0,0,.311-.566.6.6,0,0,0-.38-.559,7.146,7.146,0,0,0-1.208-.407,10.241,10.241,0,0,1-1.4-.428,2.434,2.434,0,0,1-.939-.677A1.816,1.816,0,0,1-22.084-7.2a1.983,1.983,0,0,1,.366-1.16,2.457,2.457,0,0,1,1.05-.829,3.935,3.935,0,0,1,1.609-.3,3.285,3.285,0,0,1,2.182.684,2.533,2.533,0,0,1,.9,1.844h-1.851a1,1,0,0,0-.38-.725,1.411,1.411,0,0,0-.9-.269,1.425,1.425,0,0,0-.808.193.616.616,0,0,0-.283.539.633.633,0,0,0,.387.587,6,6,0,0,0,1.2.407,10.2,10.2,0,0,1,1.367.428,2.416,2.416,0,0,1,.932.684A1.877,1.877,0,0,1-15.911-3.9a2.027,2.027,0,0,1-.366,1.188,2.411,2.411,0,0,1-1.05.822A3.977,3.977,0,0,1-18.922-1.592Zm6.532-6.67a2.936,2.936,0,0,1,1.029-.877,3.118,3.118,0,0,1,1.5-.352,3.346,3.346,0,0,1,1.775.483A3.4,3.4,0,0,1-6.831-7.634,4.417,4.417,0,0,1-6.368-5.57a4.5,4.5,0,0,1-.463,2.078,3.48,3.48,0,0,1-1.257,1.4,3.276,3.276,0,0,1-1.775.5,3.087,3.087,0,0,1-1.485-.345,3.185,3.185,0,0,1-1.043-.87V1.929h-1.933v-11.3h1.933ZM-8.343-5.57a2.4,2.4,0,0,0-.283-1.195,1.96,1.96,0,0,0-.746-.766,2,2,0,0,0-1-.262,1.931,1.931,0,0,0-.987.269,2,2,0,0,0-.746.78,2.44,2.44,0,0,0-.283,1.2,2.44,2.44,0,0,0,.283,1.2,2,2,0,0,0,.746.78,1.931,1.931,0,0,0,.987.269,1.919,1.919,0,0,0,1-.276,2.05,2.05,0,0,0,.746-.787A2.47,2.47,0,0,0-8.343-5.57Zm4.364-4.709a1.178,1.178,0,0,1-.849-.325,1.074,1.074,0,0,1-.338-.808,1.074,1.074,0,0,1,.338-.808,1.178,1.178,0,0,1,.849-.325,1.178,1.178,0,0,1,.849.325,1.074,1.074,0,0,1,.338.808,1.074,1.074,0,0,1-.338.808A1.178,1.178,0,0,1-3.979-10.279Zm.953.911v7.651H-4.959V-9.368ZM.813-8.18a2.718,2.718,0,0,1,.974-.953,2.708,2.708,0,0,1,1.374-.345v2.03H2.65a1.958,1.958,0,0,0-1.374.428A1.974,1.974,0,0,0,.813-5.528v3.812H-1.12V-9.368H.813ZM3.962-5.57a4.428,4.428,0,0,1,.463-2.058A3.391,3.391,0,0,1,5.681-9.009a3.346,3.346,0,0,1,1.775-.483,3.117,3.117,0,0,1,1.5.345,3.041,3.041,0,0,1,1.029.87V-9.368h1.947v7.651H9.983V-2.835a2.876,2.876,0,0,1-1.029.891,3.148,3.148,0,0,1-1.512.352,3.251,3.251,0,0,1-1.761-.5,3.48,3.48,0,0,1-1.257-1.4A4.5,4.5,0,0,1,3.962-5.57Zm6.021.028a2.48,2.48,0,0,0-.276-1.208,1.947,1.947,0,0,0-.746-.773,1.993,1.993,0,0,0-1.008-.269,1.958,1.958,0,0,0-.994.262,1.976,1.976,0,0,0-.739.766A2.4,2.4,0,0,0,5.937-5.57,2.48,2.48,0,0,0,6.22-4.361a2.038,2.038,0,0,0,.746.794,1.894,1.894,0,0,0,.987.276A1.993,1.993,0,0,0,8.961-3.56a1.947,1.947,0,0,0,.746-.773A2.48,2.48,0,0,0,9.983-5.542Zm5.773-6.394v10.22H13.823v-10.22Z" transform="translate(22.264 12.544)" fill="#fff"/>
        <path id="Path_69348" data-name="Path 69348" d="M-24.3-5.446a4.292,4.292,0,0,1,.483-2.078,3.455,3.455,0,0,1,1.34-1.381,3.876,3.876,0,0,1,1.961-.49,3.77,3.77,0,0,1,2.355.711,3.46,3.46,0,0,1,1.25,2h-2.085a1.525,1.525,0,0,0-.559-.78,1.624,1.624,0,0,0-.974-.283,1.6,1.6,0,0,0-1.312.6,2.659,2.659,0,0,0-.483,1.706,2.635,2.635,0,0,0,.483,1.692,1.6,1.6,0,0,0,1.312.6A1.466,1.466,0,0,0-18.993-4.2h2.085a3.529,3.529,0,0,1-1.257,1.975,3.7,3.7,0,0,1-2.348.732,3.876,3.876,0,0,1-1.961-.49,3.455,3.455,0,0,1-1.34-1.381A4.292,4.292,0,0,1-24.3-5.446ZM-8.262-9.271V-1.62h-1.947v-.967a2.553,2.553,0,0,1-.974.78,3.023,3.023,0,0,1-1.305.283,3.242,3.242,0,0,1-1.588-.38A2.677,2.677,0,0,1-15.16-3.022a3.7,3.7,0,0,1-.394-1.761V-9.271h1.933v4.212a1.984,1.984,0,0,0,.456,1.4,1.614,1.614,0,0,0,1.243.49,1.632,1.632,0,0,0,1.257-.49,1.984,1.984,0,0,0,.456-1.4V-9.271Zm3.839,1.119a2.765,2.765,0,0,1,1.029-.9A3.169,3.169,0,0,1-1.9-9.4a3.346,3.346,0,0,1,1.775.483A3.4,3.4,0,0,1,1.136-7.538,4.417,4.417,0,0,1,1.6-5.473a4.5,4.5,0,0,1-.463,2.078,3.48,3.48,0,0,1-1.257,1.4A3.276,3.276,0,0,1-1.9-1.5a3.169,3.169,0,0,1-1.5-.338,2.911,2.911,0,0,1-1.029-.877V-1.62H-6.356V-11.84h1.933ZM-.376-5.473A2.4,2.4,0,0,0-.659-6.668a1.96,1.96,0,0,0-.746-.766,2,2,0,0,0-1-.262,1.931,1.931,0,0,0-.987.269,2,2,0,0,0-.746.78,2.44,2.44,0,0,0-.283,1.2,2.44,2.44,0,0,0,.283,1.2,2,2,0,0,0,.746.78,1.931,1.931,0,0,0,.987.269,1.919,1.919,0,0,0,1-.276,2.05,2.05,0,0,0,.746-.787A2.47,2.47,0,0,0-.376-5.473Zm10.5-.138a4.563,4.563,0,0,1-.055.746H4.471a1.9,1.9,0,0,0,.58,1.3,1.789,1.789,0,0,0,1.257.47,1.579,1.579,0,0,0,1.533-.925H9.926A3.485,3.485,0,0,1,8.656-2.207,3.709,3.709,0,0,1,6.349-1.5a3.991,3.991,0,0,1-1.982-.49A3.451,3.451,0,0,1,3-3.374a4.253,4.253,0,0,1-.49-2.072,4.332,4.332,0,0,1,.483-2.085A3.373,3.373,0,0,1,4.347-8.912a4.055,4.055,0,0,1,2-.483,4.022,4.022,0,0,1,1.954.47,3.3,3.3,0,0,1,1.34,1.333A4.033,4.033,0,0,1,10.12-5.611Zm-2-.552a1.533,1.533,0,0,0-.539-1.195,1.908,1.908,0,0,0-1.284-.449,1.755,1.755,0,0,0-1.208.435,1.913,1.913,0,0,0-.6,1.208ZM14.456-1.5a4.034,4.034,0,0,1-1.685-.338,2.977,2.977,0,0,1-1.181-.918,2.327,2.327,0,0,1-.476-1.284h1.947a1.061,1.061,0,0,0,.435.732,1.513,1.513,0,0,0,.946.29,1.469,1.469,0,0,0,.863-.221.669.669,0,0,0,.311-.566.6.6,0,0,0-.38-.559,7.147,7.147,0,0,0-1.208-.407,10.24,10.24,0,0,1-1.4-.428,2.434,2.434,0,0,1-.939-.677A1.816,1.816,0,0,1,11.294-7.1a1.983,1.983,0,0,1,.366-1.16,2.457,2.457,0,0,1,1.05-.829,3.935,3.935,0,0,1,1.609-.3,3.285,3.285,0,0,1,2.182.684,2.533,2.533,0,0,1,.9,1.844H15.547a1,1,0,0,0-.38-.725,1.411,1.411,0,0,0-.9-.269,1.425,1.425,0,0,0-.808.193.616.616,0,0,0-.283.539.633.633,0,0,0,.387.587,6,6,0,0,0,1.2.407,10.2,10.2,0,0,1,1.367.428,2.416,2.416,0,0,1,.932.684A1.877,1.877,0,0,1,17.467-3.8,2.027,2.027,0,0,1,17.1-2.615a2.411,2.411,0,0,1-1.05.822A3.977,3.977,0,0,1,14.456-1.5Z" transform="translate(64.837 12.448)" fill="#fff"/>
      </g>
    </g>
  </g>
</svg>
