<svg xmlns="http://www.w3.org/2000/svg" width="97.715" height="17.593" viewBox="0 0 97.715 17.593">
  <g id="Group_220075" data-name="Group 220075" transform="translate(-73.471 -18.206)">
    <path id="Path_69347" data-name="Path 69347" d="M-18.317.39a4.764,4.764,0,0,1-1.99-.4A3.516,3.516,0,0,1-21.7-1.094a2.749,2.749,0,0,1-.563-1.517h2.3a1.253,1.253,0,0,0,.514.864,1.787,1.787,0,0,0,1.117.343,1.735,1.735,0,0,0,1.019-.261.79.79,0,0,0,.367-.669.705.705,0,0,0-.449-.661,8.44,8.44,0,0,0-1.427-.481,12.094,12.094,0,0,1-1.655-.506,2.874,2.874,0,0,1-1.109-.8,2.145,2.145,0,0,1-.465-1.452A2.342,2.342,0,0,1-21.62-7.6a2.9,2.9,0,0,1,1.24-.979,4.647,4.647,0,0,1,1.9-.359,3.88,3.88,0,0,1,2.577.807,2.991,2.991,0,0,1,1.06,2.177h-2.186a1.183,1.183,0,0,0-.449-.856,1.667,1.667,0,0,0-1.068-.318A1.683,1.683,0,0,0-19.5-6.9a.728.728,0,0,0-.334.636.748.748,0,0,0,.457.693,7.092,7.092,0,0,0,1.419.481,12.045,12.045,0,0,1,1.615.506,2.853,2.853,0,0,1,1.1.807,2.217,2.217,0,0,1,.481,1.443,2.394,2.394,0,0,1-.432,1.4,2.847,2.847,0,0,1-1.24.97A4.7,4.7,0,0,1-18.317.39ZM-10.6-7.488A3.467,3.467,0,0,1-9.387-8.524a3.683,3.683,0,0,1,1.77-.416,3.951,3.951,0,0,1,2.1.571A4.016,4.016,0,0,1-4.037-6.746a5.217,5.217,0,0,1,.546,2.438,5.317,5.317,0,0,1-.546,2.455A4.109,4.109,0,0,1-5.522-.2a3.869,3.869,0,0,1-2.1.587A3.646,3.646,0,0,1-9.371-.018,3.761,3.761,0,0,1-10.6-1.045V4.549h-2.283V-8.793H-10.6Zm4.779,3.18a2.836,2.836,0,0,0-.334-1.411,2.315,2.315,0,0,0-.881-.905,2.357,2.357,0,0,0-1.182-.31,2.281,2.281,0,0,0-1.166.318,2.361,2.361,0,0,0-.881.922A2.882,2.882,0,0,0-10.6-4.275a2.882,2.882,0,0,0,.334,1.419,2.361,2.361,0,0,0,.881.922,2.281,2.281,0,0,0,1.166.318,2.266,2.266,0,0,0,1.182-.326,2.421,2.421,0,0,0,.881-.93A2.917,2.917,0,0,0-5.823-4.307ZM-.669-9.869a1.391,1.391,0,0,1-1-.383,1.268,1.268,0,0,1-.4-.954,1.268,1.268,0,0,1,.4-.954,1.391,1.391,0,0,1,1-.383,1.391,1.391,0,0,1,1,.383,1.268,1.268,0,0,1,.4.954,1.268,1.268,0,0,1-.4.954A1.391,1.391,0,0,1-.669-9.869ZM.456-8.793V.243H-1.827V-8.793ZM4.99-7.39A3.21,3.21,0,0,1,6.14-8.515a3.2,3.2,0,0,1,1.623-.408v2.4h-.6a2.313,2.313,0,0,0-1.623.506A2.331,2.331,0,0,0,4.99-4.258v4.5H2.707V-8.793H4.99ZM8.709-4.307a5.23,5.23,0,0,1,.546-2.43,4,4,0,0,1,1.484-1.631,3.951,3.951,0,0,1,2.1-.571,3.682,3.682,0,0,1,1.77.408A3.591,3.591,0,0,1,15.82-7.5V-8.793h2.3V.243h-2.3V-1.078A3.4,3.4,0,0,1,14.6-.026,3.718,3.718,0,0,1,12.819.39,3.84,3.84,0,0,1,10.739-.2,4.109,4.109,0,0,1,9.255-1.853,5.317,5.317,0,0,1,8.709-4.307Zm7.111.033A2.929,2.929,0,0,0,15.494-5.7a2.3,2.3,0,0,0-.881-.913,2.354,2.354,0,0,0-1.191-.318,2.313,2.313,0,0,0-1.174.31,2.334,2.334,0,0,0-.873.905,2.836,2.836,0,0,0-.334,1.411,2.929,2.929,0,0,0,.334,1.427,2.407,2.407,0,0,0,.881.938,2.237,2.237,0,0,0,1.166.326,2.354,2.354,0,0,0,1.191-.318,2.3,2.3,0,0,0,.881-.913A2.929,2.929,0,0,0,15.82-4.275Zm6.818-7.552V.243H20.354V-11.826Z" transform="translate(96 31)" fill="#da0029" stroke="#fff" stroke-width="0.5"/>
    <path id="Path_69348" data-name="Path 69348" d="M-24.3-4.288a5.068,5.068,0,0,1,.571-2.455,4.08,4.08,0,0,1,1.582-1.631,4.577,4.577,0,0,1,2.316-.579,4.453,4.453,0,0,1,2.781.84A4.086,4.086,0,0,1-15.57-5.756h-2.463a1.8,1.8,0,0,0-.661-.922,1.918,1.918,0,0,0-1.15-.334,1.883,1.883,0,0,0-1.549.709,3.14,3.14,0,0,0-.571,2.014,3.111,3.111,0,0,0,.571,2,1.883,1.883,0,0,0,1.549.709,1.732,1.732,0,0,0,1.81-1.24h2.463A4.168,4.168,0,0,1-17.054-.488a4.374,4.374,0,0,1-2.773.864A4.577,4.577,0,0,1-22.143-.2a4.08,4.08,0,0,1-1.582-1.631A5.068,5.068,0,0,1-24.3-4.288ZM-5.36-8.806V.229h-2.3V-.912A3.015,3.015,0,0,1-8.81.009a3.57,3.57,0,0,1-1.541.334A3.828,3.828,0,0,1-12.227-.1a3.162,3.162,0,0,1-1.28-1.321,4.366,4.366,0,0,1-.465-2.08v-5.3h2.283v4.975a2.343,2.343,0,0,0,.538,1.655A1.906,1.906,0,0,0-9.682-1.6,1.927,1.927,0,0,0-8.2-2.176,2.343,2.343,0,0,0-7.66-3.832V-8.806ZM-.826-7.485A3.265,3.265,0,0,1,.389-8.545a3.742,3.742,0,0,1,1.77-.408,3.951,3.951,0,0,1,2.1.571A4.016,4.016,0,0,1,5.739-6.759a5.217,5.217,0,0,1,.546,2.438,5.317,5.317,0,0,1-.546,2.455A4.109,4.109,0,0,1,4.255-.211a3.869,3.869,0,0,1-2.1.587,3.743,3.743,0,0,1-1.77-.4A3.437,3.437,0,0,1-.826-1.059V.229H-3.109V-11.84H-.826ZM3.953-4.321a2.836,2.836,0,0,0-.334-1.411,2.315,2.315,0,0,0-.881-.905,2.357,2.357,0,0,0-1.182-.31,2.281,2.281,0,0,0-1.166.318,2.361,2.361,0,0,0-.881.922A2.882,2.882,0,0,0-.826-4.288,2.882,2.882,0,0,0-.491-2.869a2.361,2.361,0,0,0,.881.922,2.281,2.281,0,0,0,1.166.318,2.266,2.266,0,0,0,1.182-.326,2.421,2.421,0,0,0,.881-.93A2.917,2.917,0,0,0,3.953-4.321Zm12.4-.163a5.389,5.389,0,0,1-.065.881H9.678a2.246,2.246,0,0,0,.685,1.533,2.112,2.112,0,0,0,1.484.555,1.865,1.865,0,0,0,1.81-1.093H16.12a4.116,4.116,0,0,1-1.5,2.145A4.381,4.381,0,0,1,11.9.376,4.713,4.713,0,0,1,9.556-.2,4.075,4.075,0,0,1,7.941-1.842a5.022,5.022,0,0,1-.579-2.447,5.116,5.116,0,0,1,.571-2.463,3.983,3.983,0,0,1,1.6-1.631A4.788,4.788,0,0,1,11.9-8.953,4.75,4.75,0,0,1,14.2-8.4a3.9,3.9,0,0,1,1.582,1.574A4.763,4.763,0,0,1,16.349-4.484Zm-2.365-.652a1.811,1.811,0,0,0-.636-1.411,2.254,2.254,0,0,0-1.517-.53,2.073,2.073,0,0,0-1.427.514,2.259,2.259,0,0,0-.709,1.427ZM21.47.376a4.765,4.765,0,0,1-1.99-.4,3.516,3.516,0,0,1-1.395-1.085,2.749,2.749,0,0,1-.563-1.517h2.3a1.253,1.253,0,0,0,.514.864,1.787,1.787,0,0,0,1.117.343,1.735,1.735,0,0,0,1.019-.261.79.79,0,0,0,.367-.669.705.705,0,0,0-.449-.661,8.44,8.44,0,0,0-1.427-.481,12.094,12.094,0,0,1-1.655-.506,2.874,2.874,0,0,1-1.109-.8,2.145,2.145,0,0,1-.465-1.452,2.342,2.342,0,0,1,.432-1.37,2.9,2.9,0,0,1,1.24-.979,4.647,4.647,0,0,1,1.9-.359,3.88,3.88,0,0,1,2.577.807,2.991,2.991,0,0,1,1.06,2.177H22.759a1.183,1.183,0,0,0-.449-.856,1.667,1.667,0,0,0-1.068-.318,1.683,1.683,0,0,0-.954.228.728.728,0,0,0-.334.636.748.748,0,0,0,.457.693,7.092,7.092,0,0,0,1.419.481,12.045,12.045,0,0,1,1.615.506,2.853,2.853,0,0,1,1.1.807,2.217,2.217,0,0,1,.481,1.443,2.394,2.394,0,0,1-.432,1.4,2.847,2.847,0,0,1-1.24.97A4.7,4.7,0,0,1,21.47.376Z" transform="translate(145.91 31.014)" fill="#0e32e0" stroke="#fff" stroke-width="0.5"/>
  </g>
</svg>
