<svg xmlns="http://www.w3.org/2000/svg" width="6.17" height="10.318" viewBox="0 0 6.17 10.318">
  <path id="Path_69353" data-name="Path 69353" d="M6.75.223a.991.991,0,0,1,.316.83,1.387,1.387,0,0,1-.171.729.475.475,0,0,1-.74.168L1.465-1.594a1.322,1.322,0,0,1-.417-.594A2.51,2.51,0,0,1,.9-3.1a2.533,2.533,0,0,1,.152-.9,1.173,1.173,0,0,1,.417-.583L6.156-8.144a.564.564,0,0,1,.316-.112.494.494,0,0,1,.424.28,1.387,1.387,0,0,1,.171.729.991.991,0,0,1-.316.83L2.287-3.1Z" transform="translate(-0.896 8.256)" fill="#000"/>
</svg>
